inDegrees=yes
name=ik_S48_A07_T02
DataType=double
version=3
OpenSimVersion=4.3-2021-08-27-4bc7ad9
endheader
time	pelvis_tilt	pelvis_list	pelvis_rotation	pelvis_tx	pelvis_ty	pelvis_tz	hip_flexion_r	hip_adduction_r	hip_rotation_r	knee_angle_r	knee_angle_r_beta	ankle_angle_r	subtalar_angle_r	mtp_angle_r	hip_flexion_l	hip_adduction_l	hip_rotation_l	knee_angle_l	knee_angle_l_beta	ankle_angle_l	subtalar_angle_l	mtp_angle_l	lumbar_extension	lumbar_bending	lumbar_rotation	arm_flex_r	arm_add_r	arm_rot_r	elbow_flex_r	pro_sup_r	wrist_flex_r	wrist_dev_r	arm_flex_l	arm_add_l	arm_rot_l	elbow_flex_l	pro_sup_l	wrist_flex_l	wrist_dev_l
6.699999999999945	-6.654005166492634	-2.29284461645395	36.34805470959584	0	0.9399999999999999	0	33.92195382727217	-12.47922524764425	-9.87627610822012	49.76370199198391	0.8685404477413801	0	0	0	33.92195382727217	-12.47922524764425	-9.87627610822012	49.76370199198391	0.8685404477413801	0	0	0	-4.533616854535332	-4.498323496884352	3.964042389073924	66.52263993054962	1.036672877420214	0.5598373304418198	33.65111894451448	116.2945431116984	0	0	36.10448149524895	-9.779785406853026	8.875808089141479	34.38268680336426	111.2847964844371	0	0
6.719999999999945	-6.651752145176101	-2.295659851388582	36.34708252373102	0	0.9399999999999999	0	33.93925287057152	-12.46717043546137	-9.876678138988693	49.76922692703314	0.8686368760489479	0	0	0	33.93925287057152	-12.46717043546137	-9.876678138988693	49.76922692703314	0.8686368760489479	0	0	0	-4.535652782533137	-4.495495201173263	3.968210656043168	66.51180421547052	1.042216709380263	0.5665824682730993	33.68292675982941	116.2735810667641	0	0	36.08064696340569	-9.730098005121262	8.898086198635161	34.42950902334161	111.23964292932	0	0
6.739999999999944	-6.630500902156063	-2.339919212711421	36.40599299027721	0	0.9399999999999999	0	33.94233143567973	-12.4648177357396	-9.876753323544586	49.77018827931643	0.8686536548115629	0	0	0	33.94233143567973	-12.4648177357396	-9.876753323544586	49.77018827931643	0.8686536548115629	0	0	0	-4.546968680303416	-4.536245241849214	3.90666039169386	66.66885978498613	1.305700683379216	1.044337953407006	33.57099444998601	115.9108605754318	0	0	36.12611013072713	-9.755300651392844	8.942045511589566	34.38250708113917	111.1786460381994	0	0
6.759999999999944	-6.618907444782082	-2.36470917689303	36.47449694882238	0	0.9399999999999999	0	33.94639468921488	-12.46173464720073	-9.876852114885386	49.77146518525058	0.8686759410243521	0	0	0	33.94639468921488	-12.46173464720073	-9.876852114885386	49.77146518525058	0.8686759410243521	0	0	0	-4.554937709595077	-4.554650593185177	3.839517648556235	66.75938790194239	1.433675103393222	1.26249971263771	33.45551160074847	115.0949553119455	0	0	36.17379582623928	-9.778872548150639	8.978921629427006	34.35106048167341	111.1567124732719	0	0
6.779999999999943	-6.604180471153636	-2.378110280465412	36.5186654479579	0	0.9399999999999999	0	33.94950256587565	-12.45938735116339	-9.876927463938417	49.77244561518906	0.8686930527548637	0	0	0	33.94950256587565	-12.45938735116339	-9.876927463938417	49.77244561518906	0.8686930527548637	0	0	0	-4.55416298982492	-4.564313747358771	3.755211653097545	66.86299622868314	1.570688154701879	1.600953068929928	33.34141809971994	114.2873903124072	0	0	36.18164573294869	-9.816854668648734	8.968071166732949	34.31476461416514	111.0762126108943	0	0
6.799999999999943	-6.599506068273643	-2.372345411863291	36.54938262543773	0	0.9399999999999999	0	33.95216149727982	-12.4573755493996	-9.876992005845111	49.77328274795079	0.8687076634778322	0	0	0	33.95216149727982	-12.4573755493996	-9.876992005845111	49.77328274795079	0.8687076634778322	0	0	0	-4.547977064923716	-4.558932965692184	3.730894155350525	66.92694864059818	1.592546290604474	1.892942151972661	33.27417137528481	114.0544397577611	0	0	36.18760896942961	-9.791952649393416	9.021548434899517	34.28799957863695	111.0109394119803	0	0
6.819999999999943	-6.581281905802196	-2.373143337065517	36.57079182504371	0	0.9399999999999999	0	33.95437514963086	-12.45570880635918	-9.877045574187731	49.77398282384038	0.8687198821071193	0	0	0	33.95437514963086	-12.45570880635918	-9.877045574187731	49.77398282384038	0.8687198821071193	0	0	0	-4.534726096431213	-4.567188064328215	3.706447163236723	66.90649711441947	1.637270269004527	2.119413562875358	33.2506251716792	113.8681011256584	0	0	36.17782192789537	-9.810663460126893	9.077612266656301	34.25560968207641	110.979228228252	0	0
6.839999999999942	-6.586903678545384	-2.392236011173301	36.5809208374282	0	0.9399999999999999	0	33.95664324013727	-12.45403077060943	-9.877099844910855	49.77471242090556	0.8687326159781196	0	0	0	33.95664324013727	-12.45403077060943	-9.877099844910855	49.77471242090556	0.8687326159781196	0	0	0	-4.551314571638772	-4.576610053345719	3.691427395301462	66.88039088135372	1.639873421014932	2.270007812334466	33.54473561386743	113.7460078625993	0	0	36.24935983355664	-9.817121625970685	9.146139040746988	34.22772964616938	110.939972124717	0	0
6.859999999999942	-6.568185975813695	-2.385146840378122	36.59271748368335	0	0.9399999999999999	0	33.96677220728726	-12.43735867410166	-9.877500649048477	49.77715910931573	0.8687753187466475	0	0	0	33.96677220728726	-12.43735867410166	-9.877500649048477	49.77715910931573	0.8687753187466475	0	0	0	-4.532543527059193	-4.580570079836209	3.703242991582635	66.8236826395175	1.609920139410012	2.259617608321903	33.63925695653653	113.6928936990834	0	0	36.24552861975411	-9.823253379080949	9.190224864319013	34.22686655439281	110.9028722806671	0	0
6.879999999999941	-6.556477645082103	-2.398291887270828	36.67294047025318	0	0.9399999999999999	0	33.97050711406798	-12.43458128846944	-9.877590466398873	49.77834690725897	0.8687960497316055	0	0	0	33.97050711406798	-12.43458128846944	-9.877590466398873	49.77834690725897	0.8687960497316055	0	0	0	-4.532240697829596	-4.592396358104161	3.663277798547848	66.66249156746029	1.51477786625396	2.388771759095181	34.7185595255787	113.8578765108312	0	0	36.29566858098306	-9.828744317956838	9.240682757579568	34.14405476411211	110.8873423908601	0	0
6.899999999999941	-6.542972627748891	-2.400676289926339	36.70816121481622	0	0.9399999999999999	0	33.97473993088109	-12.43139543753904	-9.87769305963455	49.77967667597957	0.8688192585740701	0	0	0	33.97473993088109	-12.43139543753904	-9.87769305963455	49.77967667597957	0.8688192585740701	0	0	0	-4.52297985558369	-4.601487859226748	3.670186585884408	66.42202483392175	1.346524864723933	2.556410157979568	34.9629469728997	113.6295893909772	0	0	36.30891214011065	-9.83958897016597	9.248369278557384	34.14035086925083	110.8834465835584	0	0
